#!OML:ASF E:/inclinewalkrobotboard/Project1/Captureday1/Session1/subject1.ASF
:FULLY-SPECIFIED
:DEGREES
101
root 0 0 0 -3.9059764229493212 -3.734927994876455 -5.986026746422035
lowerback 11.672581750650727 0.45632438549464 3.7887201493577933
upperback 0.21175835566494872 1.25718457511211 2.713322069188699
thorax -6.3090632912053355 0.5554060165356279 0.5150680154975886
lowerneck -15.914562759909979 -2.8861262250915436 -1.1081154580220371
upperneck 19.917881337742593 -3.6581614078704323 0.04330530320508186
head 9.04791305038967 -1.797212360674603 -0.26724365589844973
rclavicle -4.595977913988271E-15 -2.5275333442386625E-15
rhumerus -33.627673417843354 -21.682882925456596 -78.70342679491661
rradius 19.72291074944424
rwrist 7.592820563064747
rhand -17.844957388239404 26.26238837919439
rfingers 7.125020000000019
rthumb 8.41629587584459 -3.5332643785599203
lclavicle -6.623201593395246E-15 -3.4207174073444356E-15
lhumerus -31.65952709958821 -0.4401263219218129 83.99459054025091
lradius 27.51095365724892
lwrist 6.313377276252055
lhand -27.665343979742516 24.596018616044528
lfingers 7.125020000000027
lthumb -1.0684212532298734 54.58224915755541
rfemur -6.485418819898901 8.402807716634731 34.053873688389956
rtibia 25.732788354881407
rfoot -19.178335998223936 -6.087037129299696
rtoes 10.658736493921738
lfemur -22.889935799349686 4.60202122575702 -11.934744815945534
ltibia 71.46464569045904
lfoot 3.7427054121830032 -11.151740521736077
ltoes -7.746827721485591
102
root 0 0 0 -2.9213682540669286 -4.778095421530292 -6.900357251639437
lowerback 10.258942696533031 1.2444995543243125 5.408460906750998
upperback -0.24836140874541618 2.4668358118518343 2.4516158046046783
thorax -5.910999042353382 1.1071387860986852 -0.8393942599982002
lowerneck -17.516927052868937 -3.0245948083372656 -1.3573386929965885
upperneck 21.67082421189917 -3.961723029726704 0.24224111283208005
head 9.845059658805663 -1.87400209586691 -0.22785398627164383
rclavicle -7.0248529516335795E-15 1.5225866923982992E-15
rhumerus -32.588856696432536 -19.83806714778804 -79.44603546907
rradius 21.683011215300795
rwrist 5.907818768648991
rhand -18.109603684614413 26.054664682695076
rfingers 7.125020000000018
rthumb 8.16319677068351 -3.753025955520485
lclavicle -8.616907633067562E-15 7.119383239371602E-16
lhumerus -32.509382507160346 -0.0793205124994362 84.22379907622405
lradius 27.05128660139784
lwrist 6.261612785915675
lhand -27.567604471168984 24.711389873222632
lfingers 7.125020000000027
lthumb -0.9713778037702756 54.69938372641947
rfemur -5.028421174361156 8.347094863667058 34.71884044568884
rtibia 25.261524717115208
rfoot -21.632143520185117 -6.332426587161503
rtoes 10.188580808104057
lfemur -26.90934757067524 4.523947465056739 -12.563244945337381
ltibia 63.41683368913207
lfoot -1.2123078903789857 -6.608511148295735
ltoes -3.94561006679098
103
root 0 0 0 -1.9243338882767782 -5.570149514306809 -7.479190858614393
lowerback 10.573678449259127 1.6994285754845924 6.400109188469809
upperback 0.2570946021792761 3.1662223828997327 2.313588250645385
thorax -5.462023694525628 1.425209407893333 -1.6318468782484135
lowerneck -18.711463064006644 -3.2198340125683265 -1.800210433007234
upperneck 20.865384357810765 -4.167592295756905 0.29468615815532107
head 9.733989716422087 -1.9793575965365013 -0.17207023928151116
rclavicle -7.298389647742508E-15 2.8078189575074533E-15
rhumerus -31.456147119603706 -17.749053297810242 -80.32155324439617
rradius 23.67863980226793
rwrist 4.5011695257866355
rhand -18.406536320215494 26.113836520360785
rfingers 7.125020000000016
rthumb 7.875855766741521 -3.7235723982153957
lclavicle -8.198690520222317E-15 2.1370578931879885E-15
lhumerus -32.97943906099235 0.22746733871065203 84.43302081949898
lradius 26.67288623904892
lwrist 6.172872602847941
lhand -27.557478968436975 24.533016905735852
lfingers 7.1250200000000286
lthumb -0.960950122735424 54.524111897028334
rfemur -4.402957761898639 8.301215159367656 34.55026661077619
rtibia 24.63749370171235
rfoot -22.10560739114034 -6.6273952067638895
rtoes 9.754040515418055
lfemur -29.509995226307925 3.1340422194846385 -13.266198931762995
ltibia 49.05903485836728
lfoot -5.728387926211131 -1.6545607916294185
ltoes -1.3219643263857037
104
root 0 0 0 -1.295066598103266 -6.009635294904575 -7.485278570938142
lowerback 10.57203580136572 1.928595334948147 6.553900700901505
upperback 0.5998880510536879 3.45135922286699 2.140765993540424
thorax -5.076169347230234 1.5638089130162731 -1.9394725701200803
lowerneck -18.460442895050292 -3.1625134786263702 -1.872317453217632
upperneck 19.88916938846841 -4.029168038745886 0.31453884806736654
head 9.313634858657814 -1.9423464390495329 -0.1284462172200881
rclavicle -7.22973692651667E-15 2.4118588212588093E-15
rhumerus -30.379577757238458 -15.764312307301998 -81.00427760966356
rradius 25.404160130691785
rwrist 3.3566028907476495
rhand -18.651946309594564 26.37138502266024
rfingers 7.125020000000013
rthumb 7.6382259564943755 -3.489796519041107
lclavicle -7.600174557005866E-15 1.8918338842169817E-15
lhumerus -33.32766254461713 0.7770533594374157 84.55497045249041
lradius 26.087276772526344
lwrist 6.0354920360749675
lhand -27.59275045026047 24.625885256497426
lfingers 7.125020000000028
lthumb -0.9974844588519947 54.62473714538913
rfemur -3.150994847866274 8.331745693641501 34.62162909118306
rtibia 24.391058368359868
rfoot -22.279787796494663 -6.728044254126356
rtoes 8.180041359136638
lfemur -28.252920874710753 -0.8070976751290435 -13.643542624268528
ltibia 28.182258176479237
lfoot -6.580481710407524 2.2127266660155156
ltoes -0.39948687641948766
105
root 0 0 0 -0.8278271836259546 -6.277257185271232 -7.379999705616699
lowerback 10.457708388083434 2.069664277258001 6.4969803782563
upperback 0.7529285979778312 3.5944523418665586 1.9603347067172991
thorax -4.849964033453644 1.6361786767915294 -2.120616609182846
lowerneck -17.995827441136505 -3.0201817418351653 -1.8082284720402622
upperneck 18.43928953013871 -3.7844609584749045 0.30092444619587355
head 8.697071029495362 -1.8579650488259103 -0.09956199153400891
rclavicle -7.614585866840812E-15 4.579853502202375E-16
rhumerus -29.826740790244727 -14.986517604094638 -81.07618931373104
rradius 26.178265830897416
rwrist 2.4712803692113985
rhand -18.78054356369806 26.49467856099912
rfingers 7.12502000000001
rthumb 7.514863003686833 -3.366008836635949
lclavicle -8.042176262627673E-15 -6.472905637283937E-17
lhumerus -34.14141484150933 1.9942071322129313 84.4029819726514
lradius 24.953877943453627
lwrist 5.538021600108026
lhand -27.556601975568384 24.705510094866575
lfingers 7.12502000000003
lthumb -0.9599202058892997 54.71056868326812
rfemur 6.968232553937768 8.8018082326017 36.207983896303965
rtibia 24.067117609795908
rfoot -21.228228455342197 -4.955014787451102
rtoes -2.160006100515634
lfemur -26.603560603312083 -4.389787380199371 -12.64410338346028
ltibia 21.29352085456175
lfoot -5.097354398883743 3.861614430900202
ltoes 0.3313582403094131
